<?xml version="1.0" encoding="UTF-8"?>
<svg version="1.1" xmlns="http://www.w3.org/2000/svg" width="225" height="225">
<path d="M0 0 C74.25 0 148.5 0 225 0 C225 74.25 225 148.5 225 225 C150.75 225 76.5 225 0 225 C0 150.75 0 76.5 0 0 Z " fill="#7D7D7D" transform="translate(0,0)"/>
<path d="M0 0 C18.35173359 -0.1766477 36.66199919 0.37191763 55 1 C54.67 1.99 54.34 2.98 54 4 C54 6.27867597 54.01427313 8.55735723 54.03515625 10.8359375 C54.04444672 12.34895726 54.05355477 13.86197816 54.0625 15.375 C54.07087891 16.13039063 54.07925781 16.88578125 54.08789062 17.6640625 C54.10509594 21.60063961 53.90248344 25.14760799 53 29 C52.83786834 30.45661141 52.6916254 31.91509243 52.5625 33.375 C52.13932889 37.41863501 51.1975868 41.10784291 50 45 C49.835 45.825 49.67 46.65 49.5 47.5 C48.85522915 50.72385425 47.91083026 53.84245511 47 57 C47 57.33 47 57.66 47 58 C32.48 58 17.96 58 3 58 C3 40.51 3 23.02 3 5 C1.35 4.67 -0.3 4.34 -2 4 C-1.34 2.68 -0.68 1.36 0 0 Z " fill="#000000" transform="translate(102,0)"/>
</svg>
