<?xml version="1.0" encoding="UTF-8"?>
<svg version="1.1" xmlns="http://www.w3.org/2000/svg" width="225" height="225">
<path d="M0 0 C74.25 0 148.5 0 225 0 C225 74.25 225 148.5 225 225 C150.75 225 76.5 225 0 225 C0 150.75 0 76.5 0 0 Z " fill="#FEFEFE" transform="translate(0,0)"/>
<path d="M0 0 C14.76414512 12.56088039 26.05080772 31.43620499 28.3515625 50.91015625 C29.11253668 61.80085221 29.36052814 73.33939214 26.3515625 83.91015625 C26.03316406 85.07417969 25.71476563 86.23820312 25.38671875 87.4375 C21.45624175 100.87280431 14.08671694 112.83164574 4.3515625 122.91015625 C3.6915625 122.91015625 3.0315625 122.91015625 2.3515625 122.91015625 C2.3515625 123.57015625 2.3515625 124.23015625 2.3515625 124.91015625 C0.30353176 126.59463123 -1.733203 128.13879189 -3.8984375 129.66015625 C-4.53450928 130.1082666 -5.17058105 130.55637695 -5.82592773 131.01806641 C-25.00175246 144.26073564 -47.28976458 148.85272083 -70.3046875 145.296875 C-84.86619998 142.49728541 -97.59152361 135.68809876 -108.6484375 125.91015625 C-109.256875 125.44351563 -109.8653125 124.976875 -110.4921875 124.49609375 C-124.59872905 113.53146373 -132.51638515 95.24612741 -136.23046875 78.24609375 C-139.12976908 55.10588367 -135.3960153 32.64991989 -121.0234375 13.84765625 C-119.90749015 12.52745068 -118.78329063 11.21414614 -117.6484375 9.91015625 C-117.2153125 9.33523437 -116.7821875 8.7603125 -116.3359375 8.16796875 C-108.27151841 -2.24857257 -96.46360509 -8.83539655 -84.6484375 -14.08984375 C-83.90980469 -14.42757812 -83.17117187 -14.7653125 -82.41015625 -15.11328125 C-55.16225344 -26.5088845 -22.17946052 -17.50149171 0 0 Z " fill="#FCFCFC" transform="translate(166.6484375,49.08984375)"/>
<path d="M0 0 C1.66036034 -0.00642769 1.66036034 -0.00642769 3.35426331 -0.01298523 C5.69002602 -0.01871601 8.02580657 -0.01923804 10.36157227 -0.01489258 C13.92560399 -0.01173276 17.48880516 -0.03520797 21.05273438 -0.06054688 C23.32682187 -0.06282007 25.6009116 -0.06352327 27.875 -0.0625 C29.46591713 -0.07631462 29.46591713 -0.07631462 31.088974 -0.09040833 C40.04377186 -0.03469559 45.9674185 1.7642935 52.50390625 8.30078125 C55.97014117 14.47947601 55.94173005 20.09802937 55.90234375 27.078125 C55.90521393 28.20344131 55.90808411 29.32875763 55.91104126 30.48817444 C55.91307683 32.86085515 55.9075826 35.23355284 55.89501953 37.60620117 C55.87897458 41.22287843 55.89487868 44.83843564 55.9140625 48.45507812 C55.91207969 50.76692953 55.90823522 53.07878025 55.90234375 55.390625 C55.90841644 56.46481186 55.91448914 57.53899872 55.92074585 58.64573669 C55.85661106 65.54910567 55.35976207 71.7188604 50.890625 77.32421875 C50.32988281 77.77023438 49.76914063 78.21625 49.19140625 78.67578125 C48.36189453 79.36800781 48.36189453 79.36800781 47.515625 80.07421875 C41.28415085 83.87360299 34.88984136 83.62217651 27.82421875 83.63671875 C26.69748749 83.64337555 25.57075623 83.65003235 24.40988159 83.65689087 C22.03124621 83.66699608 19.6525826 83.67170855 17.27392578 83.67138672 C13.64828468 83.67575789 10.02386331 83.7120967 6.3984375 83.75 C4.08203539 83.75586908 1.76562753 83.75983786 -0.55078125 83.76171875 C-1.62810516 83.77608978 -2.70542908 83.79046082 -3.81539917 83.80526733 C-10.91525342 83.76248321 -16.61825801 82.81453679 -22.01535034 77.92416382 C-28.05847276 71.24523827 -27.82585559 63.90538413 -27.8671875 55.40234375 C-27.87621597 54.25341644 -27.88524445 53.10448914 -27.89454651 51.92074585 C-27.90902651 49.49504188 -27.91793014 47.06929905 -27.92163086 44.64355469 C-27.93353097 40.94529073 -27.98274572 37.24869367 -28.03320312 33.55078125 C-28.04266767 31.18881019 -28.04990256 28.82682893 -28.0546875 26.46484375 C-28.08398598 24.81604721 -28.08398598 24.81604721 -28.11387634 23.13394165 C-28.07348864 16.2154319 -27.00810485 11.6454311 -22.49609375 6.30078125 C-15.91097431 -0.11548897 -8.69443732 -0.0074571 0 0 Z " fill="#FAFAFA" transform="translate(98.49609375,70.69921875)"/>
<path d="M0 0 C14.76414512 12.56088039 26.05080772 31.43620499 28.3515625 50.91015625 C29.11253668 61.80085221 29.36052814 73.33939214 26.3515625 83.91015625 C26.03316406 85.07417969 25.71476563 86.23820312 25.38671875 87.4375 C21.45624175 100.87280431 14.08671694 112.83164574 4.3515625 122.91015625 C3.6915625 122.91015625 3.0315625 122.91015625 2.3515625 122.91015625 C2.3515625 123.57015625 2.3515625 124.23015625 2.3515625 124.91015625 C0.30353176 126.59463123 -1.733203 128.13879189 -3.8984375 129.66015625 C-4.53450928 130.1082666 -5.17058105 130.55637695 -5.82592773 131.01806641 C-25.00175246 144.26073564 -47.28976458 148.85272083 -70.3046875 145.296875 C-84.86619998 142.49728541 -97.59152361 135.68809876 -108.6484375 125.91015625 C-109.256875 125.44351563 -109.8653125 124.976875 -110.4921875 124.49609375 C-124.59872905 113.53146373 -132.51638515 95.24612741 -136.23046875 78.24609375 C-139.12976908 55.10588367 -135.3960153 32.64991989 -121.0234375 13.84765625 C-119.90749015 12.52745068 -118.78329063 11.21414614 -117.6484375 9.91015625 C-117.2153125 9.33523437 -116.7821875 8.7603125 -116.3359375 8.16796875 C-108.27151841 -2.24857257 -96.46360509 -8.83539655 -84.6484375 -14.08984375 C-83.90980469 -14.42757812 -83.17117187 -14.7653125 -82.41015625 -15.11328125 C-55.16225344 -26.5088845 -22.17946052 -17.50149171 0 0 Z M-103.6484375 4.91015625 C-104.6590625 5.67328125 -105.6696875 6.43640625 -106.7109375 7.22265625 C-120.58884655 19.91946665 -130.06068899 38.69535368 -130.984375 57.6015625 C-131.36857263 78.10602281 -126.23145743 97.05125798 -112.6484375 112.91015625 C-112.16375 113.54824219 -111.6790625 114.18632812 -111.1796875 114.84375 C-100.56112731 128.19502789 -81.43241995 137.88885944 -64.6484375 139.91015625 C-42.01184304 141.67481065 -22.16530635 135.97296213 -4.1015625 122.01953125 C10.56787731 109.40568173 20.75475661 90.21920199 22.54052734 70.86181641 C23.89127078 49.38158229 18.20751771 30.47149585 4.3515625 13.91015625 C3.3615625 12.42515625 3.3615625 12.42515625 2.3515625 10.91015625 C1.6915625 10.91015625 1.0315625 10.91015625 0.3515625 10.91015625 C0.0215625 9.92015625 -0.3084375 8.93015625 -0.6484375 7.91015625 C-16.94398115 -7.80462379 -37.29130021 -13.70053583 -59.3984375 -13.36328125 C-76.0581607 -12.75185972 -91.06496085 -5.84204521 -103.6484375 4.91015625 Z " fill="#242424" transform="translate(166.6484375,49.08984375)"/>
<path d="M0 0 C4.53454385 3.81313915 8.11465522 8.34396567 10 14 C10.49343452 21.27815918 9.17336014 26.58471977 5.25 32.75 C0.33571573 37.66428427 -4.91844583 39.74320382 -11.75 40.3125 C-17.79328366 40.2224697 -22.1731466 37.49469823 -26.75 33.75 C-31.09138773 28.44385944 -33.80864699 23.36743201 -33.4453125 16.3671875 C-32.29265788 10.23991819 -29.54940221 4.75666686 -24.5 1 C-23.35215751 0.3014206 -22.18661544 -0.36952451 -21 -1 C-19.7934375 -1.6496875 -19.7934375 -1.6496875 -18.5625 -2.3125 C-11.95144383 -4.086198 -5.97000646 -3.20968089 0 0 Z " fill="#FAFAFA" transform="translate(124,94)"/>
<path d="M0 0 C1.66036034 -0.00642769 1.66036034 -0.00642769 3.35426331 -0.01298523 C5.69002602 -0.01871601 8.02580657 -0.01923804 10.36157227 -0.01489258 C13.92560399 -0.01173276 17.48880516 -0.03520797 21.05273438 -0.06054688 C23.32682187 -0.06282007 25.6009116 -0.06352327 27.875 -0.0625 C29.46591713 -0.07631462 29.46591713 -0.07631462 31.088974 -0.09040833 C40.04377186 -0.03469559 45.9674185 1.7642935 52.50390625 8.30078125 C55.97014117 14.47947601 55.94173005 20.09802937 55.90234375 27.078125 C55.90521393 28.20344131 55.90808411 29.32875763 55.91104126 30.48817444 C55.91307683 32.86085515 55.9075826 35.23355284 55.89501953 37.60620117 C55.87897458 41.22287843 55.89487868 44.83843564 55.9140625 48.45507812 C55.91207969 50.76692953 55.90823522 53.07878025 55.90234375 55.390625 C55.90841644 56.46481186 55.91448914 57.53899872 55.92074585 58.64573669 C55.85661106 65.54910567 55.35976207 71.7188604 50.890625 77.32421875 C50.32988281 77.77023438 49.76914063 78.21625 49.19140625 78.67578125 C48.36189453 79.36800781 48.36189453 79.36800781 47.515625 80.07421875 C41.28415085 83.87360299 34.88984136 83.62217651 27.82421875 83.63671875 C26.69748749 83.64337555 25.57075623 83.65003235 24.40988159 83.65689087 C22.03124621 83.66699608 19.6525826 83.67170855 17.27392578 83.67138672 C13.64828468 83.67575789 10.02386331 83.7120967 6.3984375 83.75 C4.08203539 83.75586908 1.76562753 83.75983786 -0.55078125 83.76171875 C-1.62810516 83.77608978 -2.70542908 83.79046082 -3.81539917 83.80526733 C-10.91525342 83.76248321 -16.61825801 82.81453679 -22.01535034 77.92416382 C-28.05847276 71.24523827 -27.82585559 63.90538413 -27.8671875 55.40234375 C-27.87621597 54.25341644 -27.88524445 53.10448914 -27.89454651 51.92074585 C-27.90902651 49.49504188 -27.91793014 47.06929905 -27.92163086 44.64355469 C-27.93353097 40.94529073 -27.98274572 37.24869367 -28.03320312 33.55078125 C-28.04266767 31.18881019 -28.04990256 28.82682893 -28.0546875 26.46484375 C-28.08398598 24.81604721 -28.08398598 24.81604721 -28.11387634 23.13394165 C-28.07348864 16.2154319 -27.00810485 11.6454311 -22.49609375 6.30078125 C-15.91097431 -0.11548897 -8.69443732 -0.0074571 0 0 Z M-20.83789062 11.80273438 C-23.27246938 16.93857719 -23.06833327 21.65274306 -23.02734375 27.26953125 C-23.03117065 28.4232019 -23.03499756 29.57687256 -23.03894043 30.76550293 C-23.041657 33.19963455 -23.0343138 35.63379549 -23.01757812 38.06787109 C-22.99616674 41.78809862 -23.01739045 45.50639485 -23.04296875 49.2265625 C-23.04032543 51.59505633 -23.03520037 53.96354897 -23.02734375 56.33203125 C-23.03544067 57.44155151 -23.0435376 58.55107178 -23.05187988 59.69421387 C-22.97925343 65.69204479 -22.78361342 69.72003671 -18.49609375 74.30078125 C-13.10120226 79.3503323 -7.52008594 78.88306204 -0.52734375 78.83203125 C0.6263269 78.83585815 1.77999756 78.83968506 2.96862793 78.84362793 C5.40275955 78.8463445 7.83692049 78.8390013 10.27099609 78.82226562 C13.99122362 78.80085424 17.70951985 78.82207795 21.4296875 78.84765625 C23.79818133 78.84501293 26.16667397 78.83988787 28.53515625 78.83203125 C29.64467651 78.84012817 30.75419678 78.8482251 31.89733887 78.85656738 C37.89516979 78.78394093 41.92316171 78.58830092 46.50390625 74.30078125 C51.5534573 68.90588976 51.08618704 63.32477344 51.03515625 56.33203125 C51.03898315 55.1783606 51.04281006 54.02468994 51.04675293 52.83605957 C51.0494695 50.40192795 51.0421263 47.96776701 51.02539062 45.53369141 C51.00397924 41.81346388 51.02520295 38.09516765 51.05078125 34.375 C51.04813793 32.00650617 51.04301287 29.63801353 51.03515625 27.26953125 C51.04325317 26.16001099 51.0513501 25.05049072 51.05969238 23.90734863 C50.98706593 17.90951771 50.79142592 13.88152579 46.50390625 9.30078125 C41.10901476 4.2512302 35.52789844 4.71850046 28.53515625 4.76953125 C27.3814856 4.76570435 26.22781494 4.76187744 25.03918457 4.75793457 C22.60505295 4.755218 20.17089201 4.7625612 17.73681641 4.77929688 C14.01658888 4.80070826 10.29829265 4.77948455 6.578125 4.75390625 C4.20963117 4.75654957 1.84113853 4.76167463 -0.52734375 4.76953125 C-1.63686401 4.76143433 -2.74638428 4.7533374 -3.88952637 4.74499512 C-11.58192833 4.83814076 -15.46346077 6.06074552 -20.83789062 11.80273438 Z " fill="#242424" transform="translate(98.49609375,70.69921875)"/>
<path d="M0 0 C5.98883409 4.32526907 9.30882571 9.84732754 11 17 C11.95002592 24.37614468 11.73850543 30.65475368 7.62109375 37 C2.69567823 43.07665722 -3.34447423 48.3380769 -11.296875 49.46875 C-20.70478532 49.55388946 -27.23093652 48.29536862 -34.3203125 41.91015625 C-40.07326008 35.87884024 -42.00412505 30.86578098 -42.3125 22.5625 C-42.10684407 14.19915878 -39.58322274 8.87496908 -33.90234375 2.76171875 C-24.39091415 -6.04660722 -10.98825301 -6.31918305 0 0 Z M-31.93359375 8.23046875 C-36.11936707 14.3836559 -37.97482877 19.54542705 -37 27 C-34.81699831 34.09209331 -31.39448629 38.14120536 -25.0859375 41.94140625 C-20.16188696 44.44031579 -15.19011884 44.79752971 -9.875 43.46875 C-2.38351248 40.85808011 1.49239433 37.01521135 5 30 C6.72290275 25.54916789 6.80933185 20.38840866 5.28125 15.87890625 C2.09571139 9.08394687 -2.69126183 4.01365931 -9.8125 1.3125 C-18.39715341 0.08612094 -25.98022183 1.36304377 -31.93359375 8.23046875 Z " fill="#252525" transform="translate(128,90)"/>
<path d="M0 0 C0.99 0.66 1.98 1.32 3 2 C3.99 2 4.98 2 6 2 C6.23943622 14.09152903 6.34940906 25.5051332 2 37 C1.67 37 1.34 37 1 37 C1.33 34.36 1.66 31.72 2 29 C0.68 29.33 -0.64 29.66 -2 30 C-1.34 20.1 -0.68 10.2 0 0 Z " fill="#232323" transform="translate(189,102)"/>
<path d="M0 0 C2.625 0.375 2.625 0.375 5 1 C5.66 2.98 6.32 4.96 7 7 C5.8553125 8.0828125 5.8553125 8.0828125 4.6875 9.1875 C2.28866409 11.69790967 0.64589779 13.96808302 -1 17 C-5.875 12.25 -5.875 12.25 -7 10 C-6.01 9.67 -5.02 9.34 -4 9 C-4 6.53721199 -4.85452863 5.14775881 -6 3 C-5.38125 2.87625 -4.7625 2.7525 -4.125 2.625 C-1.80879168 2.12802644 -1.80879168 2.12802644 0 0 Z " fill="#F1F1F1" transform="translate(137,82)"/>
<path d="M0 0 C3.30006498 -0.36797185 4.64363817 -0.25604393 7.38671875 1.71484375 C8.14597656 2.44832031 8.90523437 3.18179688 9.6875 3.9375 C12.59897167 6.81720699 12.59897167 6.81720699 16 9 C16 10.32 16 11.64 16 13 C15.01 13 14.02 13 13 13 C12.67 13.66 12.34 14.32 12 15 C9.36 12.69 6.72 10.38 4 8 C4.33 7.01 4.66 6.02 5 5 C4.34 5 3.68 5 3 5 C3 4.01 3 3.02 3 2 C2.01 2 1.02 2 0 2 C0 1.34 0 0.68 0 0 Z " fill="#212121" transform="translate(52,165)"/>
<path d="M0 0 C5.94 0 11.88 0 18 0 C17.01 0.495 17.01 0.495 16 1 C15.67 1.99 15.34 2.98 15 4 C15.99 4.66 16.98 5.32 18 6 C12.06 6 6.12 6 0 6 C0.33 4.68 0.66 3.36 1 2 C0.67 1.34 0.34 0.68 0 0 Z " fill="#1E1E1E" transform="translate(102,30)"/>
<path d="M0 0 C1.485 0.99 1.485 0.99 3 2 C3.99 2 4.98 2 6 2 C6 7.28 6 12.56 6 18 C5.67 17.01 5.34 16.02 5 15 C4.01 15 3.02 15 2 15 C1.67 16.65 1.34 18.3 1 20 C0.67 20 0.34 20 0 20 C0 13.4 0 6.8 0 0 Z " fill="#1B1B1B" transform="translate(189,102)"/>
<path d="M0 0 C0.99 0.33 1.98 0.66 3 1 C3.73046875 2.92578125 3.73046875 2.92578125 4.1875 5.3125 C4.34605469 6.09238281 4.50460938 6.87226562 4.66796875 7.67578125 C5 10 5 10 5 14 C4.01 14 3.02 14 2 14 C1.67 14.99 1.34 15.98 1 17 C0.34 16.01 -0.32 15.02 -1 14 C-1.33 14 -1.66 14 -2 14 C-3.125 6.375 -3.125 6.375 -2 3 C-1.34 3 -0.68 3 0 3 C0 2.01 0 1.02 0 0 Z " fill="#2D2D2D" transform="translate(190,90)"/>
<path d="M0 0 C0.33 0 0.66 0 1 0 C1 1.65 1 3.3 1 5 C1.66 5 2.32 5 3 5 C3.48919922 6.03060547 3.48919922 6.03060547 3.98828125 7.08203125 C4.42527344 7.98308594 4.86226563 8.88414063 5.3125 9.8125 C5.74175781 10.70582031 6.17101562 11.59914063 6.61328125 12.51953125 C7.88221789 14.78931933 9.06556898 16.29248171 11 18 C10.01 18 9.02 18 8 18 C6.66018514 18.3062434 5.32488113 18.63451555 4 19 C-1.57142857 12.71428571 -1.57142857 12.71428571 -2 9 C-1.01 8.67 -0.02 8.34 1 8 C0.67 7.34 0.34 6.68 0 6 C-0.039992 4.00039988 -0.04346799 1.99952758 0 0 Z " fill="#272727" transform="translate(89,112)"/>
<path d="M0 0 C1.65 0.33 3.3 0.66 5 1 C4.9278125 1.83144531 4.855625 2.66289063 4.78125 3.51953125 C4.6884375 4.60621094 4.595625 5.69289063 4.5 6.8125 C4.4071875 7.89144531 4.314375 8.97039062 4.21875 10.08203125 C3.96262162 13.01090811 3.96262162 13.01090811 4 16 C3.34 16.66 2.68 17.32 2 18 C0 17 0 17 -1 14 C-1.09377689 12.16859259 -1.12992957 10.33380013 -1.125 8.5 C-1.12757812 7.5409375 -1.13015625 6.581875 -1.1328125 5.59375 C-1 3 -1 3 0 0 Z " fill="#1B1B1B" transform="translate(87,104)"/>
<path d="M0 0 C4.78357322 0.40752551 8.16621867 1.14588254 11.5625 4.625 C12.2740625 5.800625 12.2740625 5.800625 13 7 C12.01 7.66 11.02 8.32 10 9 C9.01 10.485 9.01 10.485 8 12 C8 11.34 8 10.68 8 10 C7.34 10 6.68 10 6 10 C2.95604931 7.26044438 0.55603771 4.81936528 -1 1 C-0.67 0.67 -0.34 0.34 0 0 Z " fill="#292929" transform="translate(161,50)"/>
<path d="M0 0 C0.96084503 0.00007553 1.92169006 0.00015106 2.91165161 0.00022888 C3.95127045 0.00539017 4.99088928 0.01055145 6.06201172 0.01586914 C7.12459198 0.01728409 8.18717224 0.01869904 9.2819519 0.02015686 C12.68522931 0.02576705 16.0884416 0.0383213 19.49169922 0.05102539 C21.79508369 0.05603908 24.09846918 0.06060221 26.40185547 0.06469727 C32.05682571 0.0757398 37.71175781 0.09248788 43.36669922 0.11352539 C43.36669922 0.44352539 43.36669922 0.77352539 43.36669922 1.11352539 C27.85669922 1.44352539 12.34669922 1.77352539 -3.63330078 2.11352539 C-3.96330078 3.10352539 -4.29330078 4.09352539 -4.63330078 5.11352539 C-6.28330078 4.78352539 -7.93330078 4.45352539 -9.63330078 4.11352539 C-6.4179804 0.75205409 -4.64721862 -0.01216549 0 0 Z " fill="#363636" transform="translate(92.63330078125,148.886474609375)"/>
<path d="M0 0 C2.625 0.9375 2.625 0.9375 5 2 C5 3.65 5 5.3 5 7 C5.33 6.67 5.66 6.34 6 6 C9 7 9 7 10 9 C9.34 9 8.68 9 8 9 C7.67 9.99 7.34 10.98 7 12 C4.03 10.35 1.06 8.7 -2 7 C-2 5.02 -2 3.04 -2 1 C-1.34 0.67 -0.68 0.34 0 0 Z " fill="#2C2C2C" transform="translate(147,37)"/>
<path d="M0 0 C2.64 0.99 5.28 1.98 8 3 C7.34 4.32 6.68 5.64 6 7 C6.99 7 7.98 7 9 7 C9.33 8.32 9.66 9.64 10 11 C8.56068883 10.54738642 7.12361001 10.08767021 5.6875 9.625 C4.48673828 9.24214844 4.48673828 9.24214844 3.26171875 8.8515625 C1 8 1 8 -2 6 C-1.34 4.02 -0.68 2.04 0 0 Z " fill="#2E2E2E" transform="translate(79,181)"/>
<path d="M0 0 C0.33 0.66 0.66 1.32 1 2 C1.99 2.33 2.98 2.66 4 3 C3.34 3 2.68 3 2 3 C2.33 3.99 2.66 4.98 3 6 C1.75539217 6.67667998 0.50403104 7.34094719 -0.75 8 C-1.79414062 8.556875 -1.79414062 8.556875 -2.859375 9.125 C-5 10 -5 10 -9 10 C-9 8 -9 8 -7.6875 6.5625 C-7.130625 6.046875 -6.57375 5.53125 -6 5 C-5.505 4.484375 -5.01 3.96875 -4.5 3.4375 C-3 2 -3 2 0 0 Z " fill="#2C2C2C" transform="translate(125,129)"/>
<path d="M0 0 C1.24546405 2.49092811 0.7767578 3.41080733 0 6 C0.66 6 1.32 6 2 6 C1.625 7.9375 1.625 7.9375 1 10 C0.01 10.495 0.01 10.495 -1 11 C-1.66 10.67 -2.32 10.34 -3 10 C-3.33 10.66 -3.66 11.32 -4 12 C-4.99 12.495 -4.99 12.495 -6 13 C-6 12.34 -6 11.68 -6 11 C-6.99 10.67 -7.98 10.34 -9 10 C-6.03 6.7 -3.06 3.4 0 0 Z " fill="#2F2F2F" transform="translate(55,52)"/>
<path d="M0 0 C2.625 0.375 2.625 0.375 5 1 C6.125 5.75 6.125 5.75 5 8 C3.00045254 8.04254356 0.99958364 8.04080783 -1 8 C-2 7 -2 7 -2.1875 4.5625 C-2 2 -2 2 0 0 Z " fill="#242424" transform="translate(137,82)"/>
<path d="M0 0 C1.65 1.65 3.3 3.3 5 5 C3.35 5 1.7 5 0 5 C0 5.66 0 6.32 0 7 C0.99 7 1.98 7 3 7 C3 7.99 3 8.98 3 10 C3.66 10 4.32 10 5 10 C4.67 10.99 4.34 11.98 4 13 C-0.41309542 9.84778899 -3.00793014 6.44536093 -6 2 C-5.01 1.67 -4.02 1.34 -3 1 C-2.34 1.33 -1.68 1.66 -1 2 C-0.67 1.34 -0.34 0.68 0 0 Z " fill="#323232" transform="translate(52,160)"/>
<path d="M0 0 C2 2 2 2 2 5 C0.56656 5.53190541 -0.87195367 6.05015258 -2.3125 6.5625 C-3.51326172 6.99755859 -3.51326172 6.99755859 -4.73828125 7.44140625 C-7 8 -7 8 -10 7 C-9.34 7 -8.68 7 -8 7 C-6.98888907 3.95086772 -6.98888907 3.95086772 -8 1 C-5.23749964 -0.38125018 -3.05268901 -0.19079306 0 0 Z " fill="#212121" transform="translate(91,34)"/>
<path d="M0 0 C-0.99 1.485 -0.99 1.485 -2 3 C-2.66 3 -3.32 3 -4 3 C-4 3.66 -4 4.32 -4 5 C-6.31 5 -8.62 5 -11 5 C-11 3.33333333 -11 1.66666667 -11 0 C-3.57142857 -1.28571429 -3.57142857 -1.28571429 0 0 Z " fill="#1B1B1B" transform="translate(120,134)"/>
<path d="M0 0 C1.875 0.3125 1.875 0.3125 4 1 C6 4 6 4 5.625 6.1875 C5.41875 6.785625 5.2125 7.38375 5 8 C3.02 7.34 1.04 6.68 -1 6 C-1 2 -1 2 0 0 Z " fill="#202020" transform="translate(46,155)"/>
<path d="M0 0 C3.91402949 1.26941497 5.79072873 2.51167694 8 6 C5.1875 6.625 5.1875 6.625 2 7 C1.01 6.34 0.02 5.68 -1 5 C-1 2 -1 2 0 0 Z " fill="#2A2A2A" transform="translate(104,132)"/>
<path d="M0 0 C0.66 0.33 1.32 0.66 2 1 C1.67 1.99 1.34 2.98 1 4 C1.66 4.66 2.32 5.32 3 6 C2.01 6.33 1.02 6.66 0 7 C-0.66 6.67 -1.32 6.34 -2 6 C-2 6.66 -2 7.32 -2 8 C-3.65 7.67 -5.3 7.34 -7 7 C-4.78071806 4.09197539 -3.07030857 2.04687238 0 0 Z " fill="#1C1C1C" transform="translate(64,45)"/>
<path d="M0 0 C0.33 0 0.66 0 1 0 C1 1.65 1 3.3 1 5 C1.66 5 2.32 5 3 5 C4.26264601 9.29299643 3.62950412 11.87831311 2 16 C-0.50037734 13.82575883 -1.43628586 12.26954202 -2 9 C-1.01 8.67 -0.02 8.34 1 8 C0.67 7.34 0.34 6.68 0 6 C-0.039992 4.00039988 -0.04346799 1.99952758 0 0 Z " fill="#2E2E2E" transform="translate(89,112)"/>
<path d="M0 0 C0.33 0.66 0.66 1.32 1 2 C1.66 2.33 2.32 2.66 3 3 C2.34 3 1.68 3 1 3 C1 3.66 1 4.32 1 5 C0.38125 5.268125 -0.2375 5.53625 -0.875 5.8125 C-3.2995233 6.95556848 -3.2995233 6.95556848 -5 10 C-5 9.34 -5 8.68 -5 8 C-5.66 7.67 -6.32 7.34 -7 7 C-5.12050295 3.42895561 -3.82946843 1.45255699 0 0 Z " fill="#2E2E2E" transform="translate(147,180)"/>
<path d="M0 0 C3.24208567 0.35049575 4.61527704 0.56221181 6.8125 3.0625 C7.204375 3.701875 7.59625 4.34125 8 5 C7.01 5.66 6.02 6.32 5 7 C4.01 8.485 4.01 8.485 3 10 C3 9.34 3 8.68 3 8 C2.34 8 1.68 8 1 8 C1 7.01 1 6.02 1 5 C1.66 4.67 2.32 4.34 3 4 C2.2575 3.2884375 2.2575 3.2884375 1.5 2.5625 C0 1 0 1 0 0 Z " fill="#353535" transform="translate(166,52)"/>
<path d="M0 0 C2.84766278 0.49834099 3.73470379 1.20765215 5.5 3.4375 C5.17 4.0975 4.84 4.7575 4.5 5.4375 C1.2 5.1075 -2.1 4.7775 -5.5 4.4375 C-2.5 0.4375 -2.5 0.4375 0 0 Z " fill="#2C2C2C" transform="translate(125.5,188.5625)"/>
<path d="M0 0 C0.66 0.66 1.32 1.32 2 2 C1.01 3.32 0.02 4.64 -1 6 C-0.01 6.33 0.98 6.66 2 7 C0.68 7.99 -0.64 8.98 -2 10 C-2.66 9.67 -3.32 9.34 -4 9 C-4.625 6.4375 -4.625 6.4375 -5 4 C-3.35 2.68 -1.7 1.36 0 0 Z " fill="#1D1D1D" transform="translate(160,172)"/>
<path d="M0 0 C0.66 0.33 1.32 0.66 2 1 C1.44894091 4.9492568 0.61064629 8.34920174 -1 12 C-1.33 12 -1.66 12 -2 12 C-2.33 8.37 -2.66 4.74 -3 1 C-2.01 0.67 -1.02 0.34 0 0 Z " fill="#212121" transform="translate(40,80)"/>
<path d="M0 0 C3.26460973 1.80412643 4.88929795 2.83394693 7 6 C4.75 6.6875 4.75 6.6875 2 7 C-0.3125 5.5625 -0.3125 5.5625 -2 4 C-1.34 4 -0.68 4 0 4 C-0.33 3.01 -0.66 2.02 -1 1 C-0.67 0.67 -0.34 0.34 0 0 Z " fill="#F4F4F4" transform="translate(140,77)"/>
<path d="M0 0 C0.66 0.33 1.32 0.66 2 1 C1.67 3.31 1.34 5.62 1 8 C1.99 8.33 2.98 8.66 4 9 C3.01 9.495 3.01 9.495 2 10 C1.01 9.67 0.02 9.34 -1 9 C-1.66 9.66 -2.32 10.32 -3 11 C-4 8 -4 8 -3.22265625 5.95703125 C-2.83980469 5.24933594 -2.45695313 4.54164063 -2.0625 3.8125 C-1.68222656 3.09707031 -1.30195313 2.38164062 -0.91015625 1.64453125 C-0.60980469 1.10183594 -0.30945313 0.55914062 0 0 Z " fill="#313131" transform="translate(182,143)"/>
<path d="M0 0 C1.98 1.32 3.96 2.64 6 4 C5.34 4.66 4.68 5.32 4 6 C2.88625 5.505 2.88625 5.505 1.75 5 C-1.13883312 3.77217129 -1.13883312 3.77217129 -5 4 C-3.36587557 2.29159719 -2.13093906 1.06546953 0 0 Z " fill="#EEEEEE" transform="translate(62,178)"/>
<path d="M0 0 C2.6875 0.3125 2.6875 0.3125 5 1 C5 1.99 5 2.98 5 4 C3.02 4.66 1.04 5.32 -1 6 C-1 5.34 -1 4.68 -1 4 C-1.66 3.67 -2.32 3.34 -3 3 C-1.8125 1.4375 -1.8125 1.4375 0 0 Z " fill="#2D2D2D" transform="translate(141,147)"/>
<path d="M0 0 C1.21236328 0.01353516 1.21236328 0.01353516 2.44921875 0.02734375 C3.37154297 0.04474609 3.37154297 0.04474609 4.3125 0.0625 C4.3125 0.3925 4.3125 0.7225 4.3125 1.0625 C2.6625 1.3925 1.0125 1.7225 -0.6875 2.0625 C-0.6875 2.3925 -0.6875 2.7225 -0.6875 3.0625 C0.9625 3.3925 2.6125 3.7225 4.3125 4.0625 C4.3125 4.3925 4.3125 4.7225 4.3125 5.0625 C1.6725 5.0625 -0.9675 5.0625 -3.6875 5.0625 C-4.0175 4.0725 -4.3475 3.0825 -4.6875 2.0625 C-5.6775 1.7325 -6.6675 1.4025 -7.6875 1.0625 C-4.80538698 0.10179566 -2.98899956 -0.04331883 0 0 Z " fill="#111111" transform="translate(111.6875,85.9375)"/>
<path d="M0 0 C0.99 0.99 1.98 1.98 3 3 C1.02 3.99 1.02 3.99 -1 5 C-1 5.66 -1 6.32 -1 7 C-2.32 7 -3.64 7 -5 7 C-5 6.01 -5 5.02 -5 4 C-3.0625 2.375 -3.0625 2.375 -1 1 C-0.67 0.67 -0.34 0.34 0 0 Z " fill="#2F2F2F" transform="translate(170,167)"/>
<path d="M0 0 C1.32 0 2.64 0 4 0 C5.0625 2.375 5.0625 2.375 6 5 C5.67 5.66 5.34 6.32 5 7 C3.68 6.34 2.36 5.68 1 5 C1 4.34 1 3.68 1 3 C0.34 2.34 -0.32 1.68 -1 1 C-0.67 0.67 -0.34 0.34 0 0 Z M-1 6 C1 7 1 7 1 7 Z " fill="#323232" transform="translate(39,143)"/>
<path d="M0 0 C-0.66 1.65 -1.32 3.3 -2 5 C-4.31 5.33 -6.62 5.66 -9 6 C-3.15384615 0 -3.15384615 0 0 0 Z " fill="#202020" transform="translate(103,88)"/>
<path d="M0 0 C1.32 0 2.64 0 4 0 C4.33 1.32 4.66 2.64 5 4 C7.97 4.495 7.97 4.495 11 5 C10.01 6.485 10.01 6.485 9 8 C9 7.34 9 6.68 9 6 C8.2575 6.0825 7.515 6.165 6.75 6.25 C4 6 4 6 1.6875 4.125 C0 2 0 2 0 0 Z M11 3 C11.99 3.495 11.99 3.495 13 4 C12.01 4.495 12.01 4.495 11 5 C11 4.34 11 3.68 11 3 Z " fill="#D9D9D9" transform="translate(131,85)"/>
<path d="M0 0 C3.465 1.485 3.465 1.485 7 3 C5.25 4.5625 5.25 4.5625 3 6 C0.75 5.6875 0.75 5.6875 -1 5 C-0.67 3.35 -0.34 1.7 0 0 Z " fill="#222222" transform="translate(81,146)"/>
<path d="M0 0 C-0.3125 1.9375 -0.3125 1.9375 -1 4 C-1.99 4.33 -2.98 4.66 -4 5 C-4.33 5.99 -4.66 6.98 -5 8 C-5.33 5.69 -5.66 3.38 -6 1 C-3 0 -3 0 0 0 Z " fill="#1F1F1F" transform="translate(192,88)"/>
<path d="M0 0 C1.32 0 2.64 0 4 0 C4 2.64 4 5.28 4 8 C3.67 7.34 3.34 6.68 3 6 C0.97536745 5.34786708 0.97536745 5.34786708 -1 5 C-0.67 3.35 -0.34 1.7 0 0 Z " fill="#1F1F1F" transform="translate(182,74)"/>
<path d="M0 0 C2 3 2 3 3 6 C2.34 6 1.68 6 1 6 C0.67 6.99 0.34 7.98 0 9 C0 8.34 0 7.68 0 7 C-0.66 7 -1.32 7 -2 7 C-2.33 6.01 -2.66 5.02 -3 4 C-1.5625 1.8125 -1.5625 1.8125 0 0 Z " fill="#292929" transform="translate(177,153)"/>
<path d="M0 0 C1.5 1.25 1.5 1.25 3 3 C3 4.32 3 5.64 3 7 C2.01 7.33 1.02 7.66 0 8 C-0.99 7.01 -1.98 6.02 -3 5 C-2.67 4.34 -2.34 3.68 -2 3 C-1.34 3 -0.68 3 0 3 C0 2.01 0 1.02 0 0 Z " fill="#2E2E2E" transform="translate(154,176)"/>
<path d="M0 0 C2.6855594 2.6855594 3.06049974 5.37621328 4 9 C3.01 9.495 3.01 9.495 2 10 C1.34 9.67 0.68 9.34 0 9 C-0.99444068 5.65506316 -1.10348268 3.31044803 0 0 Z " fill="#232323" transform="translate(87,112)"/>
<path d="M0 0 C0.66 0 1.32 0 2 0 C4.125 4.625 4.125 4.625 3 8 C1.68 7.67 0.36 7.34 -1 7 C-1 4.37886292 -0.68707555 2.49064888 0 0 Z " fill="#2C2C2C" transform="translate(149,79)"/>
<path d="M0 0 C0.598125 0.226875 1.19625 0.45375 1.8125 0.6875 C-2.8125 5.5625 -2.8125 5.5625 -6.1875 6.6875 C-5.78066505 4.32785727 -5.28935661 2.82815912 -3.875 0.875 C-2.1875 -0.3125 -2.1875 -0.3125 0 0 Z " fill="#ECECEC" transform="translate(159.1875,170.3125)"/>
<path d="M0 0 C1.65 0 3.3 0 5 0 C4.34 2.31 3.68 4.62 3 7 C1.68 5.68 0.36 4.36 -1 3 C-0.67 2.01 -0.34 1.02 0 0 Z " fill="#EBEBEB" transform="translate(57,161)"/>
<path d="M0 0 C0.66 1.32 1.32 2.64 2 4 C1.01 5.485 1.01 5.485 0 7 C0 6.34 0 5.68 0 5 C-1.65 5.33 -3.3 5.66 -5 6 C-3.63016497 2.83884224 -3.0109362 2.0072908 0 0 Z " fill="#E9E9E9" transform="translate(101,94)"/>
<path d="M0 0 C0.99 0 1.98 0 3 0 C3.66 0.66 4.32 1.32 5 2 C5.99 2 6.98 2 8 2 C8 2.99 8 3.98 8 5 C7.01 5 6.02 5 5 5 C4.67 5.66 4.34 6.32 4 7 C2 3.25 2 3.25 2 1 C1.34 0.67 0.68 0.34 0 0 Z " fill="#191919" transform="translate(60,173)"/>
<path d="M0 0 C3.79588866 0.54226981 5.47211993 2.20127563 8 5 C6.02 5.99 6.02 5.99 4 7 C3.566875 6.0409375 3.566875 6.0409375 3.125 5.0625 C2.17176549 2.84793921 2.17176549 2.84793921 0 2 C0 1.34 0 0.68 0 0 Z " fill="#2A2A2A" transform="translate(60,170)"/>
<path d="M0 0 C1.32 0 2.64 0 4 0 C3.25 5.75 3.25 5.75 1 8 C0.40267181 5.23735711 0 2.83967231 0 0 Z " fill="#EDEDED" transform="translate(129,116)"/>
<path d="M0 0 C1.5625 1.4375 1.5625 1.4375 3 4 C2.96846324 7.05380927 2.53266629 9.99653222 2 13 C1.67 13 1.34 13 1 13 C0.63901937 11.02206479 0.28638652 9.04260427 -0.0625 7.0625 C-0.25972656 5.96035156 -0.45695312 4.85820313 -0.66015625 3.72265625 C-0.77230469 2.82417969 -0.88445312 1.92570312 -1 1 C-0.67 0.67 -0.34 0.34 0 0 Z " fill="#1F1F1F" transform="translate(73,82)"/>
<path d="M0 0 C0.99 0.33 1.98 0.66 3 1 C3.6875 3.0625 3.6875 3.0625 4 5 C2.35 5.33 0.7 5.66 -1 6 C-0.67 4.02 -0.34 2.04 0 0 Z " fill="#1E1E1E" transform="translate(70,177)"/>
<path d="M0 0 C0.33 0.66 0.66 1.32 1 2 C1.66 2 2.32 2 3 2 C3.33 2.99 3.66 3.98 4 5 C3.01 5.99 2.02 6.98 1 8 C1 7.01 1 6.02 1 5 C0.34 5 -0.32 5 -1 5 C-1.33 4.01 -1.66 3.02 -2 2 C-1.34 1.34 -0.68 0.68 0 0 Z " fill="#1C1C1C" transform="translate(174,158)"/>
<path d="M0 0 C0.33 1.65 0.66 3.3 1 5 C-0.32 4.67 -1.64 4.34 -3 4 C-3.33 4.66 -3.66 5.32 -4 6 C-4.33 4.35 -4.66 2.7 -5 1 C-2 0 -2 0 0 0 Z " fill="#F5F5F5" transform="translate(86,153)"/>
<path d="M0 0 C0.598125 0.350625 1.19625 0.70125 1.8125 1.0625 C0.4925 1.3925 -0.8275 1.7225 -2.1875 2.0625 C-2.5175 3.3825 -2.8475 4.7025 -3.1875 6.0625 C-5.1875 3.0625 -5.1875 3.0625 -5.1875 0.0625 C-2.1875 -0.9375 -2.1875 -0.9375 0 0 Z " fill="#303030" transform="translate(184.1875,71.9375)"/>
<path d="M0 0 C1.32 0.66 2.64 1.32 4 2 C3.67 2.66 3.34 3.32 3 4 C-0.0625 4.625 -0.0625 4.625 -3 5 C-1.125 1.125 -1.125 1.125 0 0 Z " fill="#2C2C2C" transform="translate(161,174)"/>
<path d="M0 0 C0.66 0 1.32 0 2 0 C2.33 0.99 2.66 1.98 3 3 C3.66 3.66 4.32 4.32 5 5 C4.01 5.33 3.02 5.66 2 6 C1.01 5.01 0.02 4.02 -1 3 C-0.67 2.01 -0.34 1.02 0 0 Z " fill="#262626" transform="translate(162,170)"/>
<path d="M0 0 C0.33 0.66 0.66 1.32 1 2 C0.0625 4.625 0.0625 4.625 -1 7 C-2.32 5.68 -3.64 4.36 -5 3 C-4.67 2.34 -4.34 1.68 -4 1 C-1.9375 0.375 -1.9375 0.375 0 0 Z " fill="#313131" transform="translate(191,130)"/>
<path d="M0 0 C0.33 1.32 0.66 2.64 1 4 C0.34 4 -0.32 4 -1 4 C-1.33 4.99 -1.66 5.98 -2 7 C-2 6.34 -2 5.68 -2 5 C-2.66 5 -3.32 5 -4 5 C-2.25 1.125 -2.25 1.125 0 0 Z " fill="#2B2B2B" transform="translate(37,94)"/>
<path d="M0 0 C1.98 0 3.96 0 6 0 C6.33 0.66 6.66 1.32 7 2 C5.25 3.125 5.25 3.125 3 4 C0.75 3.125 0.75 3.125 -1 2 C-0.67 1.34 -0.34 0.68 0 0 Z " fill="#2B2B2B" transform="translate(64,47)"/>
<path d="M0 0 C0.66 0.33 1.32 0.66 2 1 C-2.75 5.875 -2.75 5.875 -5 7 C-4.60196439 4.11424181 -4.20990931 3.17810487 -1.9375 1.25 C-1.298125 0.8375 -0.65875 0.425 0 0 Z " fill="#EAEAEA" transform="translate(162,178)"/>
<path d="M0 0 C0.66 1.32 1.32 2.64 2 4 C-0.375 5.5625 -0.375 5.5625 -3 7 C-3.66 6.67 -4.32 6.34 -5 6 C-3.35 4.02 -1.7 2.04 0 0 Z " fill="#DADADA" transform="translate(178,162)"/>
<path d="M0 0 C0.33 0.99 0.66 1.98 1 3 C-0.32 3.99 -1.64 4.98 -3 6 C-3.66 5.67 -4.32 5.34 -5 5 C-3.35 3.35 -1.7 1.7 0 0 Z " fill="#323232" transform="translate(38,131)"/>
</svg>
