<?xml version="1.0" encoding="UTF-8"?>
<svg version="1.1" xmlns="http://www.w3.org/2000/svg" width="348" height="348">
<path d="M0 0 C114.84 0 229.68 0 348 0 C348 114.84 348 229.68 348 348 C233.16 348 118.32 348 0 348 C0 233.16 0 118.32 0 0 Z " fill="#FCFCFC" transform="translate(0,0)"/>
<path d="M0 0 C6.66867248 4.58202335 10.42640974 9.35221349 13 17 C13.48113337 20.23085395 13.47187585 23.36826986 13.390625 26.62890625 C13.38496521 27.50401352 13.37930542 28.37912079 13.37347412 29.28074646 C13.35130435 32.04191706 13.30114771 34.80172993 13.25 37.5625 C13.2299098 39.4485488 13.21166347 41.3346182 13.1953125 43.22070312 C13.15150368 47.81431534 13.08261491 52.4069285 13 57 C14.31607742 56.99111755 15.63215485 56.98223511 16.9881134 56.9730835 C29.4197814 56.89182891 41.85139516 56.83195355 54.28326893 56.79275131 C60.67390363 56.77191918 67.06432312 56.74368109 73.45483398 56.69824219 C79.6275359 56.65462903 85.80003143 56.63083002 91.9728756 56.62049103 C94.3222853 56.61312744 96.67168431 56.59874832 99.02100563 56.57707977 C102.32389951 56.54784082 105.62595163 56.54405263 108.92895508 56.54589844 C109.88993607 56.53151733 110.85091705 56.51713623 111.84101868 56.50231934 C120.71752713 56.55563698 128.71936216 58.61485846 135.4375 64.625 C141.10629979 70.91073283 143.789943 78.08593304 143.37890625 86.55859375 C142.0052263 95.40962436 136.5583708 102.5812219 129.5 107.875 C122.73782969 110.91797664 116.80049478 111.28157954 109.47485352 111.22705078 C107.92250252 111.22748886 107.92250252 111.22748886 106.33879089 111.22793579 C102.93540922 111.22654811 99.53224945 111.21101321 96.12890625 111.1953125 C93.76236592 111.19158038 91.39582404 111.18873435 89.02928162 111.18673706 C82.81340233 111.17911632 76.59761713 111.15948114 70.3817749 111.1373291 C64.03382642 111.11683712 57.68586268 111.10772817 51.33789062 111.09765625 C38.89188584 111.07623384 26.44595076 111.04211666 14 111 C14.04422588 116.87212981 14.11413689 122.74319187 14.20751953 128.61474609 C14.23568703 130.61075325 14.25692252 132.60687106 14.27099609 134.60302734 C14.29248403 137.47811364 14.33916426 140.35187529 14.390625 143.2265625 C14.39185364 144.11429352 14.39308228 145.00202454 14.39434814 145.91665649 C14.52358613 151.42484823 15.34286042 154.62287708 19 159 C23.93608032 163.33776755 28.69319245 163.14116411 34.99438477 163.12597656 C35.91510269 163.1278447 36.83582062 163.12971283 37.78443909 163.13163757 C39.78640526 163.13564375 41.788376 163.13771661 43.79034615 163.13809967 C48.05389993 163.14151658 52.31730141 163.16288544 56.58080196 163.18333054 C64.51881288 163.22132344 72.45666318 163.25262046 80.39477539 163.25048828 C85.91627378 163.24969892 91.43721713 163.27316436 96.95857048 163.3123703 C99.05755045 163.32280099 101.15659471 163.32437605 103.25558662 163.31671906 C125.19373836 163.24470523 125.19373836 163.24470523 134.65625 171.24609375 C135.2646875 171.96925781 135.873125 172.69242188 136.5 173.4375 C137.44359375 174.51837891 137.44359375 174.51837891 138.40625 175.62109375 C143.0776835 182.59389522 143.10905241 191.33358096 141.53515625 199.375 C139.32761398 206.0629387 135.07671403 211.17380239 128.8125 214.375 C125.10458121 216.05709334 121.8900222 217.12323194 117.79866028 217.15390015 C116.94258682 217.16250061 116.08651337 217.17110107 115.20449829 217.17996216 C113.7996669 217.18635208 113.7996669 217.18635208 112.36645508 217.19287109 C110.88279198 217.20513733 110.88279198 217.20513733 109.36915588 217.21765137 C106.08595377 217.24251689 102.80279526 217.25903318 99.51953125 217.2734375 C98.39486639 217.27876118 97.27020153 217.28408485 96.11145592 217.28956985 C90.14730893 217.3163189 84.18318289 217.33567974 78.21899414 217.35009766 C73.30441452 217.36338315 68.39025539 217.39113368 63.47583008 217.43212891 C57.5265429 217.48175274 51.5776343 217.50625649 45.62814903 217.51332474 C43.37217772 217.51999335 41.11621337 217.53509904 38.8603611 217.55921555 C15.15026097 217.79802731 -3.49797808 212.759752 -21.12109375 195.98046875 C-35.87959016 180.47397837 -40.14208505 161.79561631 -40.16113281 140.95556641 C-40.16609772 139.65226883 -40.17106262 138.34897125 -40.17617798 137.00617981 C-40.18923209 133.44618668 -40.19573276 129.88621235 -40.20018864 126.32619905 C-40.20312965 124.09804187 -40.20723626 121.86988971 -40.21169281 119.64173508 C-40.22534701 112.6583921 -40.23502479 105.67506074 -40.2388947 98.69170535 C-40.24337571 90.65195956 -40.26093425 82.61238377 -40.2898953 74.57268965 C-40.31155416 68.34230729 -40.32160116 62.11197264 -40.32293582 55.88155305 C-40.32398049 52.16732308 -40.32981643 48.45325335 -40.34775543 44.73906326 C-40.36739031 40.59367897 -40.36293045 36.44864842 -40.35644531 32.30322266 C-40.3656601 31.08422775 -40.37487488 29.86523285 -40.3843689 28.60929871 C-40.33534542 18.59038145 -38.88001556 11.13204083 -31.90234375 3.7265625 C-23.09841779 -4.26385901 -10.51839257 -5.47986186 0 0 Z " fill="#010101" transform="translate(125,66)"/>
<path d="M0 0 C1.155 0.17144531 2.31 0.34289062 3.5 0.51953125 C21.22085829 3.53129993 38.32432137 10.31651079 54 19 C55.07507813 19.58652344 56.15015625 20.17304688 57.2578125 20.77734375 C97.0901188 43.24031955 125.43979465 81.60762894 137.75 125.3125 C144.19548918 149.01268383 145.34692223 174.7930768 141 199 C140.690625 200.73830078 140.690625 200.73830078 140.375 202.51171875 C131.48718536 247.60727826 105.3955292 287.21453404 67.375 313 C59.24675807 318.41657034 50.89311779 322.97605297 42 327 C40.96488281 327.46921875 39.92976562 327.9384375 38.86328125 328.421875 C-0.88537385 345.61621979 -47.92160894 347.46444477 -88.57470703 332.02197266 C-111.43082668 322.93700875 -130.78806558 310.41886752 -149 294 C-149.79921875 293.28585937 -150.5984375 292.57171875 -151.421875 291.8359375 C-180.73330425 264.12914854 -199.6640625 221.16162113 -201 181 C-202.40337941 129.87984122 -186.19029627 86.39787027 -151.8046875 48.5859375 C-145.47846795 41.97959015 -138.28932599 36.48727307 -131 31 C-130.17886719 30.37222656 -129.35773438 29.74445312 -128.51171875 29.09765625 C-91.99226578 2.29149475 -44.39166914 -7.51022851 0 0 Z M-59 11 C-59.67063477 11.12890625 -60.34126953 11.2578125 -61.03222656 11.390625 C-71.77218628 13.51598579 -81.92052148 16.74481118 -92 21 C-93.04438232 21.44085937 -93.04438232 21.44085937 -94.10986328 21.890625 C-132.51957924 38.4056657 -163.52941476 70.58345264 -179.19921875 109.30078125 C-186.84244015 129.04881741 -190.23188603 148.18455005 -190.25 169.3125 C-190.25067474 170.02109161 -190.25134949 170.72968323 -190.25204468 171.45974731 C-190.1929305 210.66239229 -176.55915151 246.23213743 -151 276 C-150.27941406 276.84433594 -149.55882812 277.68867188 -148.81640625 278.55859375 C-123.4795276 307.50857453 -84.90775933 328.03820282 -46.28466797 330.83447266 C-40.04437743 331.14894545 -33.80960937 331.18444816 -27.5625 331.1875 C-26.24701172 331.19974609 -24.93152344 331.21199219 -23.57617188 331.22460938 C-11.16177804 331.24303747 0.40012638 329.42482565 12.375 326.25 C13.37031738 325.98614502 14.36563477 325.72229004 15.39111328 325.45043945 C55.92456634 314.40630427 90.83830653 286.66592737 111.6875 250.25 C125.76193775 224.81926979 132.23668327 198.57819587 132.3125 169.625 C132.31617584 168.9533078 132.31985168 168.2816156 132.32363892 167.58956909 C132.44715174 124.38848216 114.34873882 85.27479763 84.53515625 54.48730469 C68.61143849 38.66068277 49.70000237 27.38159605 29 19 C27.96746094 18.5153125 26.93492187 18.030625 25.87109375 17.53125 C20.66576765 15.29371522 15.12328835 14.16528229 9.625 12.875 C8.53960937 12.61074219 7.45421875 12.34648437 6.3359375 12.07421875 C-4.92741996 9.39441027 -15.48938939 8.7938854 -27.0625 8.8125 C-27.75386047 8.81310425 -28.44522095 8.8137085 -29.15753174 8.81433105 C-39.23376923 8.83826996 -49.06897309 9.07079389 -59 11 Z " fill="#050505" transform="translate(203,4)"/>
<path d="M0 0 C0.53625 0.474375 1.0725 0.94875 1.625 1.4375 C0.965 1.4375 0.305 1.4375 -0.375 1.4375 C-0.375 5.3975 -0.375 9.3575 -0.375 13.4375 C4.575 13.4375 9.525 13.4375 14.625 13.4375 C14.625 14.4275 14.625 15.4175 14.625 16.4375 C-24.975 16.4375 -64.575 16.4375 -105.375 16.4375 C-105.375 10.4975 -105.375 4.5575 -105.375 -1.5625 C-100.425 -1.5625 -95.475 -1.5625 -90.375 -1.5625 C-90.375 3.3875 -90.375 8.3375 -90.375 13.4375 C-85.425 13.4375 -80.475 13.4375 -75.375 13.4375 C-75.375 8.4875 -75.375 3.5375 -75.375 -1.5625 C-70.425 -1.5625 -65.475 -1.5625 -60.375 -1.5625 C-60.375 3.3875 -60.375 8.3375 -60.375 13.4375 C-55.425 13.4375 -50.475 13.4375 -45.375 13.4375 C-45.375 8.4875 -45.375 3.5375 -45.375 -1.5625 C-40.425 -1.5625 -35.475 -1.5625 -30.375 -1.5625 C-30.375 3.3875 -30.375 8.3375 -30.375 13.4375 C-25.425 13.4375 -20.475 13.4375 -15.375 13.4375 C-15.375 8.4875 -15.375 3.5375 -15.375 -1.5625 C-4.69424883 -3.0883216 -4.69424883 -3.0883216 0 0 Z " fill="#FEFEFE" transform="translate(105.375,331.5625)"/>
<path d="M0 0 C5.94 0 11.88 0 18 0 C18 39.6 18 79.2 18 120 C17.01 120 16.02 120 15 120 C15 105.15 15 90.3 15 75 C10.05 75 5.1 75 0 75 C0 70.05 0 65.1 0 60 C4.95 60 9.9 60 15 60 C15 55.05 15 50.1 15 45 C10.05 45 5.1 45 0 45 C0 40.05 0 35.1 0 30 C4.95 30 9.9 30 15 30 C15 25.05 15 20.1 15 15 C10.05 15 5.1 15 0 15 C0 10.05 0 5.1 0 0 Z " fill="#FFFFFF" transform="translate(330,0)"/>
<path d="M0 0 C4.82171303 0.56080607 9.01092648 1.58337516 13.5625 3.25 C27.81659508 8.21464173 42.8734425 11.78741054 58 12 C58.75490723 12.01369629 59.50981445 12.02739258 60.28759766 12.04150391 C82.73323677 12.40801739 104.08978355 10.73831801 125.26489258 2.84301758 C129.22066472 1.40176726 130.78439327 0.94609832 135 2 C135 5.3 135 8.6 135 12 C130.05 12 125.1 12 120 12 C120 12.99 120 13.98 120 15 C85.35 15 50.7 15 15 15 C15 14.01 15 13.02 15 12 C10.05 12 5.1 12 0 12 C0 8.04 0 4.08 0 0 Z " fill="#F2F2F2" transform="translate(105,333)"/>
<path d="M0 0 C0 3.96 0 7.92 0 12 C-4.95 12 -9.9 12 -15 12 C-15 16.95 -15 21.9 -15 27 C-19.95 27 -24.9 27 -30 27 C-30 23.7 -30 20.4 -30 17 C-30.66 16.67 -31.32 16.34 -32 16 C-30.99582031 15.5153125 -29.99164063 15.030625 -28.95703125 14.53125 C-20.85837768 10.57593166 -13.12503785 6.39525681 -5.57421875 1.46875 C-3 0 -3 0 0 0 Z " fill="#FCFCFC" transform="translate(270,318)"/>
<path d="M0 0 C4.95 0 9.9 0 15 0 C15 4.95 15 9.9 15 15 C13.7625 15.144375 12.525 15.28875 11.25 15.4375 C8.96536554 15.70604475 7.04879682 15.98277759 4.875 16.75 C1.77451067 17.16339858 -0.36952399 15.49458864 -3 14 C-2.01 13.67 -1.02 13.34 0 13 C0 8.71 0 4.42 0 0 Z " fill="#FDFDFD" transform="translate(240,0)"/>
<path d="M0 0 C0.66 0.33 1.32 0.66 2 1 C1.67 1.33 1.34 1.66 1 2 C3.64 2.33 6.28 2.66 9 3 C9 7.95 9 12.9 9 18 C4.05 18 -0.9 18 -6 18 C-7.32124352 9.27979275 -7.32124352 9.27979275 -7 5 C-4.90705118 2.22766466 -3.21497497 1.52288288 0 0 Z " fill="#EEEEEE" transform="translate(276,312)"/>
<path d="M0 0 C2.53835868 2.58403608 2.99485632 3.76068358 3.07421875 7.453125 C2.71614583 10.96875 2.35807292 14.484375 2 18 C-2.95 18 -7.9 18 -13 18 C-13 13.05 -13 8.1 -13 3 C-8.71 3 -4.42 3 0 3 C0 2.01 0 1.02 0 0 Z " fill="#FEFEFE" transform="translate(13,237)"/>
<path d="M0 0 C4.95 0 9.9 0 15 0 C15 4.95 15 9.9 15 15 C10.05 15 5.1 15 0 15 C0 10.05 0 5.1 0 0 Z " fill="#FFFFFF" transform="translate(330,330)"/>
<path d="M0 0 C4.95 0 9.9 0 15 0 C15 4.95 15 9.9 15 15 C10.05 15 5.1 15 0 15 C0 10.05 0 5.1 0 0 Z " fill="#FFFFFF" transform="translate(300,330)"/>
<path d="M0 0 C4.95 0 9.9 0 15 0 C15 4.95 15 9.9 15 15 C10.05 15 5.1 15 0 15 C0 10.05 0 5.1 0 0 Z " fill="#EFEFEF" transform="translate(285,330)"/>
<path d="M0 0 C4.95 0 9.9 0 15 0 C15 4.95 15 9.9 15 15 C10.05 15 5.1 15 0 15 C0 10.05 0 5.1 0 0 Z " fill="#FFFFFF" transform="translate(270,330)"/>
<path d="M0 0 C4.95 0 9.9 0 15 0 C15 4.95 15 9.9 15 15 C10.05 15 5.1 15 0 15 C0 10.05 0 5.1 0 0 Z " fill="#EFEFEF" transform="translate(255,330)"/>
<path d="M0 0 C4.95 0 9.9 0 15 0 C15 4.95 15 9.9 15 15 C10.05 15 5.1 15 0 15 C0 10.05 0 5.1 0 0 Z " fill="#EFEFEF" transform="translate(75,330)"/>
<path d="M0 0 C4.95 0 9.9 0 15 0 C15 4.95 15 9.9 15 15 C10.05 15 5.1 15 0 15 C0 10.05 0 5.1 0 0 Z " fill="#EFEFEF" transform="translate(45,330)"/>
<path d="M0 0 C4.95 0 9.9 0 15 0 C15 4.95 15 9.9 15 15 C10.05 15 5.1 15 0 15 C0 10.05 0 5.1 0 0 Z " fill="#EFEFEF" transform="translate(15,330)"/>
<path d="M0 0 C4.95 0 9.9 0 15 0 C15 4.95 15 9.9 15 15 C10.05 15 5.1 15 0 15 C0 10.05 0 5.1 0 0 Z " fill="#EFEFEF" transform="translate(330,315)"/>
<path d="M0 0 C4.95 0 9.9 0 15 0 C15 4.95 15 9.9 15 15 C10.05 15 5.1 15 0 15 C0 10.05 0 5.1 0 0 Z " fill="#FFFFFF" transform="translate(315,315)"/>
<path d="M0 0 C4.95 0 9.9 0 15 0 C15 4.95 15 9.9 15 15 C10.05 15 5.1 15 0 15 C0 10.05 0 5.1 0 0 Z " fill="#FFFFFF" transform="translate(285,315)"/>
<path d="M0 0 C4.95 0 9.9 0 15 0 C15 4.95 15 9.9 15 15 C10.05 15 5.1 15 0 15 C0 10.05 0 5.1 0 0 Z " fill="#FFFFFF" transform="translate(45,315)"/>
<path d="M0 0 C4.95 0 9.9 0 15 0 C15 4.95 15 9.9 15 15 C10.05 15 5.1 15 0 15 C0 10.05 0 5.1 0 0 Z " fill="#EFEFEF" transform="translate(30,315)"/>
<path d="M0 0 C4.95 0 9.9 0 15 0 C15 4.95 15 9.9 15 15 C10.05 15 5.1 15 0 15 C0 10.05 0 5.1 0 0 Z " fill="#FFFFFF" transform="translate(15,315)"/>
<path d="M0 0 C4.95 0 9.9 0 15 0 C15 4.95 15 9.9 15 15 C10.05 15 5.1 15 0 15 C0 10.05 0 5.1 0 0 Z " fill="#EFEFEF" transform="translate(0,315)"/>
<path d="M0 0 C4.95 0 9.9 0 15 0 C15 4.95 15 9.9 15 15 C10.05 15 5.1 15 0 15 C0 10.05 0 5.1 0 0 Z " fill="#FFFFFF" transform="translate(330,300)"/>
<path d="M0 0 C4.95 0 9.9 0 15 0 C15 4.95 15 9.9 15 15 C10.05 15 5.1 15 0 15 C0 10.05 0 5.1 0 0 Z " fill="#EFEFEF" transform="translate(315,300)"/>
<path d="M0 0 C4.95 0 9.9 0 15 0 C15 4.95 15 9.9 15 15 C10.05 15 5.1 15 0 15 C0 10.05 0 5.1 0 0 Z " fill="#FFFFFF" transform="translate(300,300)"/>
<path d="M0 0 C4.95 0 9.9 0 15 0 C15 4.95 15 9.9 15 15 C10.05 15 5.1 15 0 15 C0 10.05 0 5.1 0 0 Z " fill="#FFFFFF" transform="translate(30,300)"/>
<path d="M0 0 C4.95 0 9.9 0 15 0 C15 4.95 15 9.9 15 15 C10.05 15 5.1 15 0 15 C0 10.05 0 5.1 0 0 Z " fill="#EFEFEF" transform="translate(15,300)"/>
<path d="M0 0 C4.95 0 9.9 0 15 0 C15 4.95 15 9.9 15 15 C10.05 15 5.1 15 0 15 C0 10.05 0 5.1 0 0 Z " fill="#FFFFFF" transform="translate(0,300)"/>
<path d="M0 0 C4.95 0 9.9 0 15 0 C15 4.95 15 9.9 15 15 C10.05 15 5.1 15 0 15 C0 10.05 0 5.1 0 0 Z " fill="#FFFFFF" transform="translate(315,285)"/>
<path d="M0 0 C4.95 0 9.9 0 15 0 C15 4.95 15 9.9 15 15 C10.05 15 5.1 15 0 15 C0 10.05 0 5.1 0 0 Z " fill="#FFFFFF" transform="translate(15,285)"/>
<path d="M0 0 C4.95 0 9.9 0 15 0 C15 4.95 15 9.9 15 15 C10.05 15 5.1 15 0 15 C0 10.05 0 5.1 0 0 Z " fill="#EFEFEF" transform="translate(0,285)"/>
<path d="M0 0 C4.95 0 9.9 0 15 0 C15 4.95 15 9.9 15 15 C10.05 15 5.1 15 0 15 C0 10.05 0 5.1 0 0 Z " fill="#FFFFFF" transform="translate(330,270)"/>
<path d="M0 0 C4.95 0 9.9 0 15 0 C15 4.95 15 9.9 15 15 C10.05 15 5.1 15 0 15 C0 10.05 0 5.1 0 0 Z " fill="#EFEFEF" transform="translate(15,270)"/>
<path d="M0 0 C4.95 0 9.9 0 15 0 C15 4.95 15 9.9 15 15 C10.05 15 5.1 15 0 15 C0 10.05 0 5.1 0 0 Z " fill="#FFFFFF" transform="translate(0,270)"/>
<path d="M0 0 C4.95 0 9.9 0 15 0 C15 4.95 15 9.9 15 15 C10.05 15 5.1 15 0 15 C0 10.05 0 5.1 0 0 Z " fill="#EFEFEF" transform="translate(330,255)"/>
<path d="M0 0 C4.95 0 9.9 0 15 0 C15 4.95 15 9.9 15 15 C10.05 15 5.1 15 0 15 C0 10.05 0 5.1 0 0 Z " fill="#EFEFEF" transform="translate(0,255)"/>
<path d="M0 0 C4.95 0 9.9 0 15 0 C15 4.95 15 9.9 15 15 C10.05 15 5.1 15 0 15 C0 10.05 0 5.1 0 0 Z " fill="#EFEFEF" transform="translate(330,75)"/>
<path d="M0 0 C4.95 0 9.9 0 15 0 C15 4.95 15 9.9 15 15 C10.05 15 5.1 15 0 15 C0 10.05 0 5.1 0 0 Z " fill="#EFEFEF" transform="translate(0,75)"/>
<path d="M0 0 C4.95 0 9.9 0 15 0 C15 4.95 15 9.9 15 15 C10.05 15 5.1 15 0 15 C0 10.05 0 5.1 0 0 Z " fill="#EFEFEF" transform="translate(15,60)"/>
<path d="M0 0 C4.95 0 9.9 0 15 0 C15 4.95 15 9.9 15 15 C10.05 15 5.1 15 0 15 C0 10.05 0 5.1 0 0 Z " fill="#FFFFFF" transform="translate(0,60)"/>
<path d="M0 0 C4.95 0 9.9 0 15 0 C15 4.95 15 9.9 15 15 C10.05 15 5.1 15 0 15 C0 10.05 0 5.1 0 0 Z " fill="#EFEFEF" transform="translate(330,45)"/>
<path d="M0 0 C4.95 0 9.9 0 15 0 C15 4.95 15 9.9 15 15 C10.05 15 5.1 15 0 15 C0 10.05 0 5.1 0 0 Z " fill="#FFFFFF" transform="translate(315,45)"/>
<path d="M0 0 C4.95 0 9.9 0 15 0 C15 4.95 15 9.9 15 15 C10.05 15 5.1 15 0 15 C0 10.05 0 5.1 0 0 Z " fill="#FFFFFF" transform="translate(15,45)"/>
<path d="M0 0 C4.95 0 9.9 0 15 0 C15 4.95 15 9.9 15 15 C10.05 15 5.1 15 0 15 C0 10.05 0 5.1 0 0 Z " fill="#EFEFEF" transform="translate(0,45)"/>
<path d="M0 0 C4.95 0 9.9 0 15 0 C15 4.95 15 9.9 15 15 C10.05 15 5.1 15 0 15 C0 10.05 0 5.1 0 0 Z " fill="#EFEFEF" transform="translate(315,30)"/>
<path d="M0 0 C4.95 0 9.9 0 15 0 C15 4.95 15 9.9 15 15 C10.05 15 5.1 15 0 15 C0 10.05 0 5.1 0 0 Z " fill="#FFFFFF" transform="translate(300,30)"/>
<path d="M0 0 C4.95 0 9.9 0 15 0 C15 4.95 15 9.9 15 15 C10.05 15 5.1 15 0 15 C0 10.05 0 5.1 0 0 Z " fill="#FFFFFF" transform="translate(30,30)"/>
<path d="M0 0 C4.95 0 9.9 0 15 0 C15 4.95 15 9.9 15 15 C10.05 15 5.1 15 0 15 C0 10.05 0 5.1 0 0 Z " fill="#EFEFEF" transform="translate(15,30)"/>
<path d="M0 0 C4.95 0 9.9 0 15 0 C15 4.95 15 9.9 15 15 C10.05 15 5.1 15 0 15 C0 10.05 0 5.1 0 0 Z " fill="#FFFFFF" transform="translate(0,30)"/>
<path d="M0 0 C4.95 0 9.9 0 15 0 C15 4.95 15 9.9 15 15 C10.05 15 5.1 15 0 15 C0 10.05 0 5.1 0 0 Z " fill="#EFEFEF" transform="translate(330,15)"/>
<path d="M0 0 C4.95 0 9.9 0 15 0 C15 4.95 15 9.9 15 15 C10.05 15 5.1 15 0 15 C0 10.05 0 5.1 0 0 Z " fill="#FFFFFF" transform="translate(315,15)"/>
<path d="M0 0 C4.95 0 9.9 0 15 0 C15 4.95 15 9.9 15 15 C10.05 15 5.1 15 0 15 C0 10.05 0 5.1 0 0 Z " fill="#EFEFEF" transform="translate(300,15)"/>
<path d="M0 0 C4.95 0 9.9 0 15 0 C15 4.95 15 9.9 15 15 C10.05 15 5.1 15 0 15 C0 10.05 0 5.1 0 0 Z " fill="#FFFFFF" transform="translate(285,15)"/>
<path d="M0 0 C4.95 0 9.9 0 15 0 C15 4.95 15 9.9 15 15 C10.05 15 5.1 15 0 15 C0 10.05 0 5.1 0 0 Z " fill="#EFEFEF" transform="translate(270,15)"/>
<path d="M0 0 C4.95 0 9.9 0 15 0 C15 4.95 15 9.9 15 15 C10.05 15 5.1 15 0 15 C0 10.05 0 5.1 0 0 Z " fill="#EFEFEF" transform="translate(60,15)"/>
<path d="M0 0 C4.95 0 9.9 0 15 0 C15 4.95 15 9.9 15 15 C10.05 15 5.1 15 0 15 C0 10.05 0 5.1 0 0 Z " fill="#FFFFFF" transform="translate(45,15)"/>
<path d="M0 0 C4.95 0 9.9 0 15 0 C15 4.95 15 9.9 15 15 C10.05 15 5.1 15 0 15 C0 10.05 0 5.1 0 0 Z " fill="#EFEFEF" transform="translate(30,15)"/>
<path d="M0 0 C4.95 0 9.9 0 15 0 C15 4.95 15 9.9 15 15 C10.05 15 5.1 15 0 15 C0 10.05 0 5.1 0 0 Z " fill="#FFFFFF" transform="translate(15,15)"/>
<path d="M0 0 C4.95 0 9.9 0 15 0 C15 4.95 15 9.9 15 15 C10.05 15 5.1 15 0 15 C0 10.05 0 5.1 0 0 Z " fill="#EFEFEF" transform="translate(0,15)"/>
<path d="M0 0 C4.95 0 9.9 0 15 0 C15 4.95 15 9.9 15 15 C10.05 15 5.1 15 0 15 C0 10.05 0 5.1 0 0 Z " fill="#EFEFEF" transform="translate(315,0)"/>
<path d="M0 0 C4.95 0 9.9 0 15 0 C15 4.95 15 9.9 15 15 C10.05 15 5.1 15 0 15 C0 10.05 0 5.1 0 0 Z " fill="#FFFFFF" transform="translate(300,0)"/>
<path d="M0 0 C4.95 0 9.9 0 15 0 C15 4.95 15 9.9 15 15 C10.05 15 5.1 15 0 15 C0 10.05 0 5.1 0 0 Z " fill="#EFEFEF" transform="translate(285,0)"/>
<path d="M0 0 C4.95 0 9.9 0 15 0 C15 4.95 15 9.9 15 15 C10.05 15 5.1 15 0 15 C0 10.05 0 5.1 0 0 Z " fill="#FFFFFF" transform="translate(270,0)"/>
<path d="M0 0 C4.95 0 9.9 0 15 0 C15 4.95 15 9.9 15 15 C10.05 15 5.1 15 0 15 C0 10.05 0 5.1 0 0 Z " fill="#EFEFEF" transform="translate(255,0)"/>
<path d="M0 0 C4.95 0 9.9 0 15 0 C15 4.95 15 9.9 15 15 C10.05 15 5.1 15 0 15 C0 10.05 0 5.1 0 0 Z " fill="#EFEFEF" transform="translate(75,0)"/>
<path d="M0 0 C4.95 0 9.9 0 15 0 C15 4.95 15 9.9 15 15 C10.05 15 5.1 15 0 15 C0 10.05 0 5.1 0 0 Z " fill="#FFFFFF" transform="translate(60,0)"/>
<path d="M0 0 C4.95 0 9.9 0 15 0 C15 4.95 15 9.9 15 15 C10.05 15 5.1 15 0 15 C0 10.05 0 5.1 0 0 Z " fill="#EFEFEF" transform="translate(45,0)"/>
<path d="M0 0 C4.95 0 9.9 0 15 0 C15 4.95 15 9.9 15 15 C10.05 15 5.1 15 0 15 C0 10.05 0 5.1 0 0 Z " fill="#FFFFFF" transform="translate(30,0)"/>
<path d="M0 0 C4.95 0 9.9 0 15 0 C15 4.95 15 9.9 15 15 C10.05 15 5.1 15 0 15 C0 10.05 0 5.1 0 0 Z " fill="#FFFFFF" transform="translate(0,0)"/>
<path d="M0 0 C12.75 -0.125 12.75 -0.125 15 1 C15 5.62 15 10.24 15 15 C10.05 15 5.1 15 0 15 C0 10.05 0 5.1 0 0 Z " fill="#EFEFEF" transform="translate(60,315)"/>
<path d="M0 0 C4.95 0 9.9 0 15 0 C15 4.95 15 9.9 15 15 C6.12676056 15.47323944 6.12676056 15.47323944 1.875 13.6875 C-1.1743012 9.31683495 -0.31143327 5.232079 0 0 Z " fill="#EFEFEF" transform="translate(285,30)"/>
<path d="M0 0 C4.95 0 9.9 0 15 0 C15 4.29 15 8.58 15 13 C10.98406154 14.00398461 10.06654743 14.00932387 6.375 12.75 C5.59898437 12.49734375 4.82296875 12.2446875 4.0234375 11.984375 C2 11 2 11 0 8 C-0.25760279 5.30547479 -0.08900053 2.71451625 0 0 Z " fill="#ECECEC" transform="translate(225,0)"/>
<path d="M0 0 C6.625 0.75 6.625 0.75 10 3 C10.886875 3.4125 11.77375 3.825 12.6875 4.25 C13.450625 4.8275 14.21375 5.405 15 6 C15 7.98 15 9.96 15 12 C10.05 12 5.1 12 0 12 C0 8.04 0 4.08 0 0 Z " fill="#EEEEEE" transform="translate(105,333)"/>
<path d="M0 0 C2.31 0 4.62 0 7 0 C7 4.95 7 9.9 7 15 C1.06 15.495 1.06 15.495 -5 16 C-3.40615011 10.63886855 -1.8106711 5.29273092 0 0 Z " fill="#EEEEEE" transform="translate(338,225)"/>
<path d="M0 0 C0.66 0.33 1.32 0.66 2 1 C2.78819663 3.52520353 3.45649314 5.99330743 4.0625 8.5625 C4.23587891 9.25408203 4.40925781 9.94566406 4.58789062 10.65820312 C5.74667593 15.42209825 6.46826189 20.12664764 7 25 C4.8614515 22.8614515 4.57344937 21.86724686 4 19 C1.36 18.67 -1.28 18.34 -4 18 C-4 13.05 -4 8.1 -4 3 C-2.68 3 -1.36 3 0 3 C0 2.01 0 1.02 0 0 Z " fill="#F8F8F8" transform="translate(4,207)"/>
<path d="M0 0 C1.13817003 4.5526801 0.33208488 7.40300712 -0.9375 11.75 C-1.13279297 12.44738281 -1.32808594 13.14476562 -1.52929688 13.86328125 C-2.0108246 15.57798973 -2.50425157 17.28934877 -3 19 C-3.33 18.01 -3.66 17.02 -4 16 C-5.65 16 -7.3 16 -9 16 C-9 11.05 -9 6.1 -9 1 C-4.545 0.505 -4.545 0.505 0 0 Z " fill="#FCFCFC" transform="translate(9,119)"/>
<path d="M0 0 C4.95 0 9.9 0 15 0 C15.16276042 2.01822917 15.32552083 4.03645833 15.48828125 6.0546875 C15.87393036 8.39519216 15.87393036 8.39519216 19 10 C11.36945905 9.38955672 4.29810526 7.20378179 -3 5 C-2.01 4.67 -1.02 4.34 0 4 C0 2.68 0 1.36 0 0 Z " fill="#FBFBFB" transform="translate(210,0)"/>
<path d="M0 0 C4.62 0 9.24 0 14 0 C9.90473413 4.89434213 5.73642915 9.70720334 1 14 C0.67 14 0.34 14 0 14 C0 9.38 0 4.76 0 0 Z " fill="#FEFEFE" transform="translate(45,45)"/>
<path d="M0 0 C0.99 0 1.98 0 3 0 C3 5.94 3 11.88 3 18 C-2.94 18 -8.88 18 -15 18 C-15 17.01 -15 16.02 -15 15 C-10.05 15 -5.1 15 0 15 C0 10.05 0 5.1 0 0 Z " fill="#F0F0F0" transform="translate(345,330)"/>
<path d="M0 0 C3.63 0 7.26 0 11 0 C11 4.29 11 8.58 11 13 C7.05967518 11.02983759 5.82150263 9.88471287 3.25 6.5 C2.63640625 5.7059375 2.0228125 4.911875 1.390625 4.09375 C0 2 0 2 0 0 Z " fill="#FAFAFA" transform="translate(304,60)"/>
<path d="M0 0 C-0.99 0.66 -1.98 1.32 -3 2 C-3.72965366 4.56282742 -3.72965366 4.56282742 -4 7 C-6.91691525 7.05401695 -9.83282724 7.09368066 -12.75 7.125 C-13.575 7.14175781 -14.4 7.15851563 -15.25 7.17578125 C-16.04921875 7.18222656 -16.8484375 7.18867188 -17.671875 7.1953125 C-18.4050293 7.20578613 -19.13818359 7.21625977 -19.89355469 7.22705078 C-22.29896076 6.96777544 -23.91251494 6.19225925 -26 5 C-24.48019531 4.70996094 -24.48019531 4.70996094 -22.9296875 4.4140625 C-21.57808432 4.15125077 -20.22652408 3.88821817 -18.875 3.625 C-18.20984375 3.49867188 -17.5446875 3.37234375 -16.859375 3.2421875 C-0.24939904 -0.01467053 -0.24939904 -0.01467053 0 0 Z " fill="#F4F4F4" transform="translate(229,338)"/>
<path d="M0 0 C4.53287116 3.73295272 8.37382288 7.38486548 12 12 C8.37 12 4.74 12 1 12 C0.67 8.04 0.34 4.08 0 0 Z " fill="#FEFEFE" transform="translate(44,288)"/>
<path d="M0 0 C2.31 0 4.62 0 7 0 C6.45820789 4.55105375 5.37999159 8.06386006 3 12 C2.01 12.33 1.02 12.66 0 13 C0 8.71 0 4.42 0 0 Z " fill="#EFEFEF" transform="translate(15,90)"/>
<path d="M0 0 C1.65 0 3.3 0 5 0 C5.94983783 3.69381378 6.06402988 6.32426043 5 10 C4.01 11.485 4.01 11.485 3 13 C2.67 13.66 2.34 14.32 2 15 C1.34 15 0.68 15 0 15 C0 10.05 0 5.1 0 0 Z " fill="#E8E8E8" transform="translate(0,135)"/>
<path d="M0 0 C4.29 0 8.58 0 13 0 C12.01 0.495 12.01 0.495 11 1 C10.67 1.99 10.34 2.98 10 4 C6.5065403 5.74672985 3.93154432 7 0 7 C0 4.69 0 2.38 0 0 Z " fill="#EFEFEF" transform="translate(90,15)"/>
<path d="M0 0 C4.95 0 9.9 0 15 0 C15 1.32 15 2.64 15 4 C8.97365319 5.06347297 5.17023869 5.44682579 0 2 C0 1.34 0 0.68 0 0 Z " fill="#EAEAEA" transform="translate(195,0)"/>
<path d="M0 0 C0.99 0.33 1.98 0.66 3 1 C3 5.95 3 10.9 3 16 C2.01 16 1.02 16 0 16 C-1.74706142 10.75881575 -1.32791716 5.31166864 0 0 Z " fill="#FEFEFE" transform="translate(345,194)"/>
<path d="M0 0 C0 0.99 0 1.98 0 3 C-0.33 3.33 -0.66 3.66 -1 4 C-1.36760731 6.32817964 -1.70241581 8.6618385 -2 11 C-3.093125 11.103125 -4.18625 11.20625 -5.3125 11.3125 C-8.85559629 11.97307727 -9.93243723 12.2027092 -12 15 C-12.99 14.67 -13.98 14.34 -15 14 C-14.50371094 13.57589844 -14.00742187 13.15179688 -13.49609375 12.71484375 C-8.79678658 8.65756716 -4.32846012 4.45019806 0 0 Z " fill="#FBFBFB" transform="translate(302,289)"/>
<path d="M0 0 C0.66 0.33 1.32 0.66 2 1 C1.67 3.64 1.34 6.28 1 9 C-1.97 9 -4.94 9 -8 9 C-7.04663979 7.68388323 -6.08714226 6.37221039 -5.125 5.0625 C-4.59132813 4.33160156 -4.05765625 3.60070312 -3.5078125 2.84765625 C-2 1 -2 1 0 0 Z " fill="#FAFAFA" transform="translate(284,306)"/>
<path d="M0 0 C0.33 0 0.66 0 1 0 C1 6.93 1 13.86 1 21 C0.01 20.67 -0.98 20.34 -2 20 C-1.86177801 16.85378318 -1.71314916 13.70814434 -1.5625 10.5625 C-1.52318359 9.66466797 -1.48386719 8.76683594 -1.44335938 7.84179688 C-1.40146484 6.98779297 -1.35957031 6.13378906 -1.31640625 5.25390625 C-1.27974854 4.46314697 -1.24309082 3.6723877 -1.20532227 2.85766602 C-1 1 -1 1 0 0 Z " fill="#EEEEEE" transform="translate(347,174)"/>
<path d="M0 0 C0 2.97 0 5.94 0 9 C-2.97 9 -5.94 9 -9 9 C-7.31867015 5.81432238 -4.17974126 0 0 0 Z " fill="#FCFCFC" transform="translate(315,276)"/>
<path d="M0 0 C4.95 0 9.9 0 15 0 C15 0.99 15 1.98 15 3 C10.05 3 5.1 3 0 3 C0 2.01 0 1.02 0 0 Z " fill="#FFFFFF" transform="translate(315,345)"/>
<path d="M0 0 C4.95 0 9.9 0 15 0 C15 0.99 15 1.98 15 3 C10.05 3 5.1 3 0 3 C0 2.01 0 1.02 0 0 Z " fill="#EFEFEF" transform="translate(300,345)"/>
<path d="M0 0 C4.95 0 9.9 0 15 0 C15 0.99 15 1.98 15 3 C10.05 3 5.1 3 0 3 C0 2.01 0 1.02 0 0 Z " fill="#FFFFFF" transform="translate(285,345)"/>
<path d="M0 0 C4.95 0 9.9 0 15 0 C15 0.99 15 1.98 15 3 C10.05 3 5.1 3 0 3 C0 2.01 0 1.02 0 0 Z " fill="#EFEFEF" transform="translate(270,345)"/>
<path d="M0 0 C4.95 0 9.9 0 15 0 C15 0.99 15 1.98 15 3 C10.05 3 5.1 3 0 3 C0 2.01 0 1.02 0 0 Z " fill="#FFFFFF" transform="translate(255,345)"/>
<path d="M0 0 C4.95 0 9.9 0 15 0 C15 0.99 15 1.98 15 3 C10.05 3 5.1 3 0 3 C0 2.01 0 1.02 0 0 Z " fill="#FFFFFF" transform="translate(225,345)"/>
<path d="M0 0 C4.95 0 9.9 0 15 0 C15 0.99 15 1.98 15 3 C10.05 3 5.1 3 0 3 C0 2.01 0 1.02 0 0 Z " fill="#FFFFFF" transform="translate(105,345)"/>
<path d="M0 0 C4.95 0 9.9 0 15 0 C15 0.99 15 1.98 15 3 C10.05 3 5.1 3 0 3 C0 2.01 0 1.02 0 0 Z " fill="#EFEFEF" transform="translate(90,345)"/>
<path d="M0 0 C4.95 0 9.9 0 15 0 C15 0.99 15 1.98 15 3 C10.05 3 5.1 3 0 3 C0 2.01 0 1.02 0 0 Z " fill="#EFEFEF" transform="translate(60,345)"/>
<path d="M0 0 C4.95 0 9.9 0 15 0 C15 0.99 15 1.98 15 3 C10.05 3 5.1 3 0 3 C0 2.01 0 1.02 0 0 Z " fill="#EFEFEF" transform="translate(30,345)"/>
<path d="M0 0 C4.95 0 9.9 0 15 0 C15 0.99 15 1.98 15 3 C10.05 3 5.1 3 0 3 C0 2.01 0 1.02 0 0 Z " fill="#EFEFEF" transform="translate(0,345)"/>
<path d="M0 0 C0.99 0 1.98 0 3 0 C3 4.95 3 9.9 3 15 C2.01 15 1.02 15 0 15 C0 10.05 0 5.1 0 0 Z " fill="#FFFFFF" transform="translate(345,315)"/>
<path d="M0 0 C0.99 0 1.98 0 3 0 C3 4.95 3 9.9 3 15 C2.01 15 1.02 15 0 15 C0 10.05 0 5.1 0 0 Z " fill="#EFEFEF" transform="translate(345,300)"/>
<path d="M0 0 C0.99 0 1.98 0 3 0 C3 4.95 3 9.9 3 15 C2.01 15 1.02 15 0 15 C0 10.05 0 5.1 0 0 Z " fill="#FFFFFF" transform="translate(345,285)"/>
<path d="M0 0 C0.99 0 1.98 0 3 0 C3 4.95 3 9.9 3 15 C2.01 15 1.02 15 0 15 C0 10.05 0 5.1 0 0 Z " fill="#EFEFEF" transform="translate(345,270)"/>
<path d="M0 0 C0.99 0 1.98 0 3 0 C3 4.95 3 9.9 3 15 C2.01 15 1.02 15 0 15 C0 10.05 0 5.1 0 0 Z " fill="#FFFFFF" transform="translate(345,255)"/>
<path d="M0 0 C0.99 0 1.98 0 3 0 C3 4.95 3 9.9 3 15 C2.01 15 1.02 15 0 15 C0 10.05 0 5.1 0 0 Z " fill="#EFEFEF" transform="translate(345,240)"/>
<path d="M0 0 C0.99 0 1.98 0 3 0 C3 4.95 3 9.9 3 15 C2.01 15 1.02 15 0 15 C0 10.05 0 5.1 0 0 Z " fill="#FFFFFF" transform="translate(345,225)"/>
<path d="M0 0 C0.99 0 1.98 0 3 0 C3 4.95 3 9.9 3 15 C2.01 15 1.02 15 0 15 C0 10.05 0 5.1 0 0 Z " fill="#EFEFEF" transform="translate(345,210)"/>
<path d="M0 0 C0.99 0 1.98 0 3 0 C3 4.95 3 9.9 3 15 C2.01 15 1.02 15 0 15 C0 10.05 0 5.1 0 0 Z " fill="#EFEFEF" transform="translate(345,120)"/>
<path d="M0 0 C0.99 0 1.98 0 3 0 C3 4.95 3 9.9 3 15 C2.01 15 1.02 15 0 15 C0 10.05 0 5.1 0 0 Z " fill="#FFFFFF" transform="translate(345,105)"/>
<path d="M0 0 C0.99 0 1.98 0 3 0 C3 4.95 3 9.9 3 15 C2.01 15 1.02 15 0 15 C0 10.05 0 5.1 0 0 Z " fill="#EFEFEF" transform="translate(345,90)"/>
<path d="M0 0 C0.99 0 1.98 0 3 0 C3 4.95 3 9.9 3 15 C2.01 15 1.02 15 0 15 C0 10.05 0 5.1 0 0 Z " fill="#EFEFEF" transform="translate(345,60)"/>
<path d="M0 0 C0.99 0 1.98 0 3 0 C3 4.95 3 9.9 3 15 C2.01 15 1.02 15 0 15 C0 10.05 0 5.1 0 0 Z " fill="#EFEFEF" transform="translate(345,30)"/>
<path d="M0 0 C0.99 0 1.98 0 3 0 C3 4.95 3 9.9 3 15 C2.01 15 1.02 15 0 15 C0 10.05 0 5.1 0 0 Z " fill="#EFEFEF" transform="translate(345,0)"/>
<path d="M0 0 C2.15648338 3.23472506 3.61457684 6.37151078 5 10 C4.67 10.66 4.34 11.32 4 12 C2.35 12 0.7 12 -1 12 C-1.02698189 10.37509046 -1.04638757 8.75005367 -1.0625 7.125 C-1.07410156 6.22007812 -1.08570313 5.31515625 -1.09765625 4.3828125 C-1 2 -1 2 0 0 Z " fill="#EEEEEE" transform="translate(16,243)"/>
<path d="M0 0 C3.3 0 6.6 0 10 0 C10 1.65 10 3.3 10 5 C5.82412255 6.39195915 3.86525224 4.82323219 0 3 C0 2.01 0 1.02 0 0 Z " fill="#E9E9E9" transform="translate(245,15)"/>
<path d="M0 0 C2.12438339 -0.08078641 4.2496323 -0.13909141 6.375 -0.1875 C7.55835938 -0.22230469 8.74171875 -0.25710938 9.9609375 -0.29296875 C11.46527344 -0.14794922 11.46527344 -0.14794922 13 0 C13.66 0.99 14.32 1.98 15 3 C10.05 3 5.1 3 0 3 C0 2.01 0 1.02 0 0 Z " fill="#DCDCDC" transform="translate(150,345)"/>
<path d="M0 0 C0.99 0 1.98 0 3 0 C3 4.95 3 9.9 3 15 C2.67 15 2.34 15 2 15 C1.67 13.35 1.34 11.7 1 10 C0.67 10 0.34 10 0 10 C0 6.7 0 3.4 0 0 Z " fill="#E7E7E7" transform="translate(345,150)"/>
<path d="M0 0 C5.75 0.75 5.75 0.75 8 3 C7 4 7 4 3.4375 4.0625 C2.303125 4.041875 1.16875 4.02125 0 4 C0 2.68 0 1.36 0 0 Z " fill="#F0F0F0" transform="translate(90,326)"/>
<path d="M0 0 C1.32 0 2.64 0 4 0 C4 2.31 4 4.62 4 7 C3.01 6.67 2.02 6.34 1 6 C0.67 4.02 0.34 2.04 0 0 Z " fill="#F0F0F0" transform="translate(326,90)"/>
</svg>
